<?xml version="1.0" encoding="UTF-8"?>
<svg enable-background="new -29.1428 181.4295 1422.6975 1505.2311" version="1.1" viewBox="-29.1428 181.4295 1422.6975 1505.2311" xmlns="http://www.w3.org/2000/svg">
 <path d="m700.76 234.46c8.6 6.03 17.46 12.01 27.52 15.34 10.19 3.65 21.06 4.64 31.77 5.58 8.32 0.61 16.62 1.58 24.97 1.85 25.48 0.86 51.27 3.92 75.1 13.45 6.25 2.69 13.19 4.51 18.16 9.44l-2.2 0.66c5.44 3.66 11.93 5.25 17.63 8.38 6.12 5 12.21 10.61 15.57 17.91 2.18 4.52 1.54 10.4-2.3 13.84-3.24 2.85-2.91 7.93-6.33 10.63-4.08 3.2-9.7401 2.8-14.6 2.3 11.81 12.67 20.54 27.96 26.42 44.21 0.94 4.26-0.29 8.65 0.14 12.97 0.66 21.11 8.7 41.14 19.06 59.26 7.2 12.19 12.23 26.28 23.51 35.5 4.87 4.05 10.41 9.37 9.62 16.32-0.07 3.77-2.62 6.73-4.12 9.97-0.94 13.64-1.44 27.86-7.38 40.45-4.32 9.33-12.32 16.4-21.12 21.43-3.62 2.08-7.86 2.41-11.94 2.53-2.38 4.3-7.03 7.96-12.21 6.83-7.64-1.59-13.04-7.7-18.37-12.9-6.42-1.9-13.63-3-18.58-8.02 5.78 9.43 10.92 19.26 17.07 28.47 17.39 27.07 34.23 55.59 40.23 87.63 4.36 2.11 8.79 4.38 12.17 7.94 4.85 4.93 7.14 11.62 10.03 17.75 3.9-5.53 7.73-11.14 12.34-16.12 20.45-22.42 48.82-35.51 69.83-57.32 5.1-5.28 9.42-11.24 13.59-17.26 6.55-7.4 14.88-13.88 24.74-15.95 9.87-2.16 20.01 1.65 27.93 7.45 10.05 7.38 19.43 17.26 21.75 29.95 0.17 3.27 3.16 5.01 5.0699 7.29 2.4401 2.29 4.2301 5.66 7.75 6.4301 33.6 11.4 67.22 22.87 99.93 36.65 11.86 3.98 24.52 5.24 36.12 10.06 4.84 2.11 9.41 5.1 12.69 9.3 4.1801 5.21 6.3 11.75 7.4 18.26 0.29 1.33 0.3401 2.88 1.3301 3.96 3.38 4.29 6.83 8.53 10.24 12.8 1.4199 2.26 4.2799 2.4 6.46 3.6 7.76 3.77 13.61 10.49 18.46 17.46 5.23 7.31 8.5901 15.7 12.27 23.85 2.5 6.5 5.5801 13.26 4.84 20.4-0.3899 4.53-4.5099 7.65-8.74 8.41-10.39 2.08-21.07-0.13-31.1-2.94-6.77-1.88-13.58-5.33-17.29-11.54-4.8999-7.92-6.09-17.41-7.5199-26.44-3.2201-1.06-6.38-2.84-7.9701-5.95-3.9199-7.3-3.38-15.88-3.51-23.89-6.2899 0.92-12.87 2.56-19.07 0.38-6.38-2.48-10.66-8.12-14.87-13.23-4.84-5.88-11.85-9.32-18.66-12.38-16.6-6.89-34.21-10.83-51.58-15.23 19.08 30.06 37.65 60.72 50.66 93.98 1.58 3.53 2.51 7.36 4.47 10.71 5.66 7.66 11.32 16.29 11.38 26.17 0.14 6.73-3.87 12.71-8.98 16.75-2.27 9.93-3.92 20.19-8.39 29.44-1.87 3.92-5.4501 7.69-10.14 7.41-5.83-0.4-10.88-3.73-15.6-6.9-3.7101-2.65-7.49-5.26-10.73-8.48-5.64-6.35-8.8201-14.83-9.0901-23.29-0.3199-6.9 2.5601-14.09 8.38-18.06-0.98-3.93-3.1-8.02-1.6-12.1 0.9-2.97 2.76-5.53 4.33-8.18-4.5199-8.03-8.6-16.45-10.35-25.56-1.08-4.75-1.39-9.63-2.1799-14.43-12.98-27.45-34.17-50.08-57.51-69.12-30.83 23.58-56.98 52.44-84.25 79.87-10.93 11.08-22.52 21.52-33.13 32.91-5.38 7.82-10.61 16.17-18.69 21.53-12.19 8.19-27.73 7.06-41.68 5.99-15.4 39.37-35.59 77.06-61.55 110.51-23.37 29.99-51.71 56.46-84.76 75.48-37.72 21.94-81.42 33.33-125.04 32.89-1.66 12.1-2.58 24.29-4.37 36.37-1.66 10.79-4.64 21.81-11.61 30.47-8.82 11.04-21.48 18.06-33.93 24.24-1 11.49-1.2 23.6-6.64 34.06-5.63 9.9301-15.02 16.84-23.47 24.2-0.2599 9.02 0.4 18.34-2.59 27.02-3.12 8.83-10.21 15.42-17.21 21.29-1.57 7.86-3.67 15.74-7.7 22.75-5.55 10.01-15.15 16.88-24.91 22.42-4.63 2.9399-9.95 4.83-13.95 8.71-14.49 12.23-27.27 26.4-38.15 41.93-0.71 1.3099-2.69 2.65-1.39 4.23 18.24 33.19 35.6 66.97 56.75 98.46 13 19.16 27.35 37.63 44.55 53.24 8.19 4.48 17.91 6.63 24.78 13.32 5.9301 5.9399 6.73 14.83 7.22 22.76-0.04 1.3199 1.22 1.97 2.15 2.6499 9.22 6.3 17.33 14.13 24.56 22.63 4.47 5.3601 9.05 10.92 11.41 17.61-4.13 3.71-10.01 4.1-15.23 5.0699-11.22 1.13-22.78 1.33-33.77-1.5699-3.44-1.02-7.08-2.3-9.51-5.05-4.52-7.03-7.71-14.94-9.03-23.2-7.61 0.25-15.71-1.26-21.68-6.28-7.92-6.41-11.66-16.39-13.93-26.01-0.64-2.28-0.59-4.87-2.1299-6.77-28.9-39.14-57.38-78.59-86.71-117.41-1.51 10.68-2.3 21.55-0.94 32.29 1.33 12.81 5.28 25.15 9.26 37.34 4.04 12.5 8.54 24.86 12.79 37.3 4.94 14.41 11.37 28.81 22.29 39.73 6.6 7.2 15.74 11.76 21.26 20 3.32 5.04 3.71 11.26 4.07 17.12 5.79 4.34 11.11 9.47 14.92 15.68 4.52 7.12 6.52 15.74 5.85 24.13-8.47 3.1499-17.67 3.1899-26.59 3.2-8.08-0.05-16.24-0.61-24.05-2.75-2.4-0.79-5.54-1.74-6.04-4.59-2.26-8.23-3.63-16.72-3.81-25.25-5.81-1.52-11.4-4.37-15.39-8.9501-5.16-5.75-7.52-13.46-8.19-21.02-0.29-2.61-0.02-5.2899-0.81-7.7999-10.39-30.47-22.15-60.47-31.52-91.29-0.87-3.21-2.83-5.9399-4.45-8.78-10.97-19.12-21.45-38.59-29.79-59.02-1.8-4.2201-2.91-8.77-5.61-12.55-4.89-8.24-10.61-17.65-7.97-27.63 2.56-8.59 8.71-15.46 14.23-22.3-5.44-7.73-10.57-17.08-8.33-26.86 2.35-10.61 10.77-18.16 17.6-26.01 15.72-29.34 30.7-59.17 49.01-87.02 0.63-0.89 1.32-2.0801 0.56-3.1101-3.08-6.22-8.03-11.21-12.4-16.51-6.94-8.1799-14.5-16.69-16.6-27.55-9.23-15.34-18.82-30.54-26.22-46.88-2.14-4.54-3.58-9.41-6.37-13.62-6.12-9.96-8.25-21.66-9.88-33.06-3.99 10.1-7.44 20.83-6.79 31.83 0.69 10.33 4.94 20.03 9.87 28.99-7.18-5.9601-13.36-13.43-16.55-22.3-3.38-9.35-3.61-19.4-4.28-29.2-1.12 2.25-2.65 4.58-2 7.23 3.42 29.43-2.81 60.17-18.95 85.17 9.62 8.36 16.65 19.76 19.31 32.27 2.88 13.62 1.74 27.88-1.8 41.27 9.86 17.28 17.85 36.44 17.75 56.66 0.25 19.68-7.78 38.61-19.33 54.24-2.32 3.38-5.4 6.24-7.16 9.99-0.92 1.35-1.01-1.27-0.48-1.7 2.8-2.8 4.51-6.41 6.55-9.75 5.66-9.6901 10.2-20.42 10.56-31.78 0.6-11.29-2.27-22.32-4.95-33.18-1.71 21.33-5.64 43.26-17.34 61.58-9.98 16.09-26.03 27.87-43.84 33.96-22.59 7.78-46.92 9.14-70.61 7.67 19.99-0.5801 40.72-2.8201 58.54-12.61 14.49-7.77 25.35-21.05 32.28-35.78 4.88-10.17 8.68-20.9 11.18-31.89-5.97 16.06-14.44 31.44-26.16 44.05-11.39 12.23-26.44 21.03-42.78 24.65-22.11 5.2101-45.15 2.1901-66.98-2.9199-13.43-3.25-26.6-7.5-39.59-12.19-9.53-3.6699-19.22-7.14-29.32-8.9-10.63-1.8899-21.63-1.5199-32.15 0.9-3.58 0.76-7.03 2.05-10.66 2.63 7.81-4.77 16.32-8.96 25.58-9.6899 7.96-0.9 15.89 0.65 23.79 1.4099-12.55-3.99-25.27-8.6599-38.63-8.36-6.51 0-13.45 1.78-18.09 6.61-3.52 3.5701-5.13 8.4701-6.21 13.26-1.53-7.6799-2.02-16.26 2.13-23.24 3.94-6.6699 11.28-10.35 18.51-12.33 10.05-2.72 20.53-2.78 30.85-3.3-14.76-2.1499-29.82-4.3999-44.7-2.0399-7.68 1.2899-15.89 4.0399-20.67 10.59-3.84 5.12-4.39 11.9-3.45 18.05 0.54 4.5299 2.32 8.7699 3.39 13.18-4.51-7.3199-9.15-14.87-10.7-23.47-1.64-7.53-0.11-15.79 4.65-21.92 5.98-7.86 14.87-12.84 23.79-16.68-7.72 1.76-15.22 4.5499-22.26 8.1699-6.85 3.5601-13.12 9.26-15.06 17-2.29 9.4701 0.75 19.14 4.11 27.96-3.97-6.4401-6.96-13.48-8.89-20.79-2.24-8.9401-2.06-18.99 2.9-27.02 5.99-9.98 16.83-15.68 27.44-19.54 19.77-6.86 40.82-8.61 61.57-9.88-8.87-4.0599-18.11-7.2999-27.38-10.32-13.12-4.2-27.75-7.03-41.06-1.98-14.51 5.38-24.81 17.67-33.9 29.64 7.74-14.72 17.54-29.61 32.68-37.55 15.93-8.1799 34.33-7.4 51.71-7.64-13.2-2.6699-26.78-5.0699-40.27-3.3099-12.75 1.7999-24.15 8.4099-34.41 15.86 12.24-14.45 30.05-24.45 49.11-25.69 23.78-1.5699 46.66 6.53 69.14 13.12 4.94-5.13 9.51-10.74 12.64-17.18 4.04-8.28 6.19-17.3 8.14-26.25-3.45 5.17-6.42 10.79-11.04 15.05-4.59 3.9401-10.18 6.4601-15.7 8.79 5.56-5.28 11.62-10.24 15.82-16.73 4.02-6.13 4.91-13.59 5.67-20.71-14.19 3.1499-29 5.4299-41.74 12.84-11.7 6.85-19.54 18.46-25.65 30.26 2.77-10.81 6.16-21.97 13.43-30.68 8.41-9.5 20.73-13.83 31.92-19.08-13.64 2.4301-27.86 5.47-39.1 14.04-7.52 5.5699-12.74 13.54-16.97 21.76 2.5-12.69 7.94-25.39 17.97-33.93 10.16-8.8101 23.56-12.46 36.52-14.74 8.13-1.4301 16.33-2.46 24.55-3.27-1.01-5.5699-2.37-11.14-5-16.18-2.92-5.63-6.75-10.69-10.2-15.99-12.81 1.14-25.6 4.25-37.13 10.04-5.83 3.1801-12.06 7.74-13.22 14.74-0.61 5.8301 3.1 10.83 6.63 15.06-6.32-3.8201-12.97-8.6-15.26-15.98-2.05-6.26 0.81-12.96 5.03-17.61 7.77-8.7 18.56-14.09 29.47-17.73-11.92 0.5701-24.21-0.4399-35.77 3.05-11.15 3.4-17.17 15.15-18.31 26.06-1.18-8.74-0.03-18.03 4.08-25.9 3.63-6.89 10.86-11.01 18.24-12.72 13.06-3.1899 26.62-2.8199 39.91-4.21-8.67-23.32-16.52-47.16-19.73-71.93-13.16-2.83-26.65-5.7999-38.28-12.87-12.29-7.41-21.21-19.02-29.31-30.59 5.68 5.61 10.85 11.88 17.59 16.3 7.51 4.9 16.3 7.45 25.06 8.99-11.8-6.1-23.69-13.49-31.14-24.8-6.21-9.43-6.92-21.25-5.45-32.15 0.93-8.16 3.39-16.01 5.01-24.02-0.11 11.93-2.88 24.36 1.7 35.87 4.79 12.27 16.91 19.46 28.55 24.21-4.48-2.98-8.55-6.7-11.51-11.21-4.56-7.54-5.79-16.42-7.98-24.8 4.56 9.36 8.99 19.51 17.65 25.85 9.6 6.79 21.86 7.08 33.14 7.9301 4.89-17.14 10.76-34.18 19.65-49.7 6.97-12.16 16.14-23.64 28.58-30.54 10.99-6.2 24.16-7.74 36.5-5.65 19.27 3.19 36.82 12.6 53.1 23 5.11 3.56 10.93 6.42 14.77 11.5 9.46 9.82 20.94 17.44 32.57 24.46 15.21 8.88 31.24 16.49 48.11 21.63 10.63 3.17 21.83 5.41 32.96 3.97 3.36-15.54 8.5-31 17.79-44.06 11.42-16.23 27.8-27.95 43.97-39.04 5.27-3.7599 11.05-6.84 15.77-11.32 10.73-9.05 24.44-13.51 37.94-16.48 11.18-2.44 22.58-3.52 33.9-5.06 43.7-28.79 83.07-64.66 113.57-107.33-7.99 1.6899-16.09 4.22-24.34 3.02-7.7-0.88-14.67-4.52-21.44-8.04 7.16 1.09 14.22 3.72 21.57 2.81 9.88-0.98 17.36-8.29 24.09-14.91-8.5 2.8-17.19 5.78-26.26 5.55-8.5 0.27-16.76-1.98-25.1-3.16 8.28-0.98 16.79 0.13 24.98-1.9 11.64-2.28 21.03-10.18 29.08-18.45-8.09 3.5-16.23 7.07-24.91 8.83-16.25 3.83-33.03 2.8199-49.56 2.73 13.37-1.22 26.94-3.13 39.25-8.84 10.91-4.88 21.44-12.94 25.26-24.72 2.9901-8.61 0.9901-17.9-2.4-26.06 1.3 8.84 1.45 18.47-3.37 26.37-6.61 11.17-19.48 16.62-31.69 19.06-14.77 2.79-30.16 1.25-44.69 5.52-4.54 1.33-9.21 4.12-10.12 9.15 0.64 4.98 3.38 9.25 6.57 12.99-5.13-3.5-10.24-7.31-13.92-12.38-1.85-2.5099-3.16-5.96-1.68-8.94 1.88-3.18 5.54-4.68 8.86-5.87 5.99-1.86 12.21-3.02 18.46-3.6-5.96-1.06-12 0.26-18 0.2-10.98 0.91-22.37 1.55-32.58 6.09-4.05 1.73-8.42 5.54-7.33 10.44 1.72 7.18 8.04 11.81 13.23 16.54-7.41-4.45-14.68-9.72-19.58-16.96-3.08-4.48-4.4-10.57-1.89-15.6 3.56-7.33 10.98-11.6 18-15.08 16.72-7.67 35.05-11.29 53.3-12.81-7.37-1.28-15.19-1.58-21.89-5.24-6.82-3.85-10.95-10.76-15.49-16.86 7.53 6.98 16.87 12.37 27.21 13.53 10.66 1.43 22.91-2.06 28.92-11.53 5.31-8.3799 3.91-19.09 0.15-27.78-2.95-7.65-8.81-13.58-12.62-20.75-4.86-8.3-8.13-17.7-8.25-27.39-0.18-14.06 4.23-27.58 6.36-41.35-6.2401 16.27-13.36 32.73-14 50.41-0.53 12.37 3.43 24.76 10.73 34.73 3.61 5.2 8.1 9.7 12.62 14.11-12.83-8.96-24.75-20.57-29.98-35.67-5.23-14.74-4.15-30.63-3.16-45.95 0.94-1.24 1.3-3.06-0.21-4.02-0.75 9.35-3.5601 18.4-4.22 27.77-1.53 12.3 0.11 25.34 6.51 36.13 5.1 8.8199 12.26 16.22 19.86 22.91-13-7.32-24.36-17.77-32.46-30.32-10.71-16.7-14.08-37.3-11.91-56.81 0.65-7.83 2.41-15.51 4.16-23.15-0.7-8.3-1.85-17.29 2.2401-24.98 3.87-7.47 11.8-11.61 19.49-14.14-7.76-0.2-15.59-0.05-23.23 1.3701-5.35 1.04-11.35 3.49-13.35 9.02-1.67 3.95-0.09 8.09 0.07 12.15-3.02-6.46-6.31-13.85-3.61-21 3.11-7.23 10.85-10.74 17.85-13.19 6.69-2.38 13.66-3.85 20.56-5.51-11.49-0.2-23.42-1-34.46 2.85-7.85 2.76-13.62 9.38-16.89 16.86 1.72-8.93 5.59-18.6 14.11-23.01 12.04-6 25.92-5.3 38.7-8.63 6.59-1.67 12.04-6.41 15.04-12.46-12.57 6.32-27.08 9.62-41.04 6.66-12.04-2.38-23.27-9.53-29.53-20.24 5.21 4.54 10.38 9.52 17 11.92 7.85 2.93 16.41 2.08 24.59 1.54-10.68-0.84-22.38-1.86-30.86-9.16-8.35-7.55-10.71-19.4-11.55-30.14 3.16 10.28 8.36 21.46 18.84 25.95 10.28 4.28 21.53 0.38 31.01-4.14-7.7 1.23-16.11 2.33-23.27-1.59-7.62-4.26-12.44-11.9-17.12-18.99 6.92 7.33 14.48 15.28 24.83 17.27 8.48 1.62 16.72-2.91 22.29-9.01 9.1-9.87 14.38-22.57 18.35-35.22 1.84-6.17 3.45-12.43 4.37-18.82-6.52 7.33-15.06 13.69-18.09 23.41-2.1 6.35-0.11 12.89 0.99 19.2-4.83-8.98-8.59-19.8-4.69-29.83 4.95-12.35 16.07-20.44 24.94-29.82-12.93 6.86-26.2 13.96-36.15 24.95-4.4901 5.08-8.3 11.83-6.73 18.84 1.65 7.13 7.65 11.97 13.31 16.02-8.55-3.24-17.69-8.49-20.49-17.82-3.01-10.44 1.01-21.18 4.7-30.89-5.37 7.08-11.55 14.49-12.44 23.69-0.67 7.61 3.76 14.24 7.85 20.23-7.63-6.42-13.32-15.95-12.78-26.18 0.58-11.49 7.21-21.58 14.66-29.91 12.24-13.21 27.15-23.88 43.21-31.94-7.4 2.13-14.56 5.12-21.34 8.76-8.74 4.63-16.15 11.27-23.55 17.75 9.76-12.13 21.87-22.66 36.11-29.19 13.46-6.26 28.08-9.35 42.5-12.52 3.98-0.77 7.86-2.05 11.91-2.39-6.57-1.18-13.41-1.71-19.44-4.81-8.79-4.21-14.77-12.23-20.52-19.79 6.24 4.86 11.84 10.91 19.41 13.76 6.3 2.55 13.24 2.37 19.89 1.79-7.91-0.58-16.13-2.16-22.54-7.14-6.75-5.28-11.27-12.73-16.12-19.65 8.45 6.84 17.32 14.19 28.35 16.15 9.98 2 19.96-0.93 29.55-3.46-8.67 0.26-17.83 1.68-26.04-1.97-5.48-2.38-10.09-6.35-14.31-10.5 6.76 2.86 13.62 5.77 21.01 6.46 11.74 1.52 23.5-2.58 33.08-9.18 11.27-7.91 24.6-12.07 37.89-15.12-9.85-1.86-20.23-3.8-30.08-0.98-6.12 1.64-11.38 5.36-16.14 9.4 4.98-7.31 12.26-13.63 21.17-15.29 11.37-2.35 22.85 0.75 34.13 2.17-14.17-4.67-29.09-10.17-44.21-7.26-9.69 1.77-17.62 8.07-24.27 14.99 5.53-8.73 13.03-16.96 23.11-20.26 11.2-3.54 23.22-1.29 34.23 1.88 17.96 5.58 36.48 9.72 55.29 10.97-10.97-2.88-22.04-6.64-31.04-13.76-5.1099-4.1405-10.1-8.5005-14.46-13.44m166.64 321.37c-1.6-6.71-0.71-13.76 0.94-20.37-6.7401-4.45-13.81-8.41-20.4-13.09 6.33 11.24 12.89 22.36 19.46 33.46z"/>
</svg>
