<?xml version="1.0" encoding="UTF-8"?>
<svg viewBox="0 0 164.16 241.96" xmlns="http://www.w3.org/2000/svg">
 <path d="m190.38-91.808c-6.8921-1.6068-5.469 3.9254-8.787 5.3852-20.555 2.3945-36.883-4.178-55.245-2.1534 2.3917 7.2926 18.117 8.8498 13.811 18.306-9.7941 4.9278-24.963-1.3558-31.391 6.4603-2.7595-1.942-5.1455-4.2012-8.785-5.3852-16.27 3.0947-32.899-14.093-51.48-17.227-4.1133-0.69359-6.9999 1.0305-10.05 0-6.8401-2.3136-10.518-9.119-16.316-12.92-4.899-3.2087-10.665-2.3483-12.56-7.5386 0 0-7.8164-7.8078-12.762-8.2041-2.0663-0.16679-4.0921-0.26918-6.0698-0.40955-27.337-1.9652-55.922-1.0751-84.744-0.44257l1.866 7.9795c5.1609 10.65 20.803 12.313 27.624 21.536-1.011 3.5819-8.9199 5.2927-5.0203 9.692 2.151 4.9773 7.8761 6.883 13.809 8.6137 7.3215-1.9784 10.975-7.1026 18.837-8.6137 8.6137 0.42276 16.748 8.2272 26.369 8.6137 11.142 0.44422 18.612-4.5397 27.624-3.2318 13.513 1.9619 21.3 19.536 36.411 8.6137 17.141 11.5 43.602 15.013 62.784 24.766-0.3447 9.403 0.56039 19.865-3.7725 25.843-13.728-0.10735-37.253 1.833-45.202 12.92-1.7562 5.4562 5.7598 2.9576 5.0203 7.537-8.2035 3.0138-5.9736 14.978-11.3 20.459 5.9812 4.9179 9.927 11.584 17.584 15.074 11.023-1.3162 15.411-8.3164 27.618-8.6137 8.6291 6.1399 2.4245 19.964 10.052 27.994-5.4266 5.0434-7.4583 12.987-16.326 15.076-21-8.0291-31.137-31.14-56.508-32.305-17.636-0.81083-35.61 12.05-56.5 5.3836-7.4486-14.787-18.995-26.061-36.411-32.303-4.0151 3.2664-13.135 7.0548-10.044 12.92 2.5246 3.5786 11.04 2.018 15.067 4.3068 13.014 7.2777 4.4927 32.703 20.089 34.456 5.5942 0.62917 9.9925-4.8716 16.324-5.3852 13.131-1.0651 29.606 9.3717 46.456 4.3068 6.7342 3.9188 12.084 9.0199 17.582 13.999 3.0099 5.8443 14.298 9.7548 12.558 16.147-23.563-1.7554-53.845-18.88-72.824-7.5337 1.7254 20.033 9.2068 40.631 15.067 59.222 1.5386 4.8898 5.1763 6.7526 5.0222 10.769-0.10207 2.6604-3.5202 6.9936-5.0222 10.769-2.126 5.3274-1.9045 11.931-3.7686 15.076-3.2198 5.4265-13.674 6.2126-12.554 13.997 1.0168 4.8386 10.876 3.501 13.809 1.075 0.90894 3.8857 5.2707 4.8138 11.302 4.3036 8.061-10.341 2.9502-20.72 12.558-31.225 27.599-6.2637-0.54114-17.989-3.7705-32.303-2.7942-12.405 2.1067-18.859-1.2517-26.921 35.061 6.9045 62.747 20.127 95.424 29.074-5.9158 19.919-4.8624 38.781 3.7686 55.989 8.5039 16.953 27.52 28.411 30.134 41.992 3.913 20.325-16.91 36.706-41.435 27.999-11.198-3.9732-21.188-30.257 0-33.383 2.3937 2.4424-2.8231 10.79 5.0222 10.769 17.098-10.376-1.3942-20.791-15.071-16.154-8.6406 2.9296-14.568 15.011-12.558 25.846 5.4112 29.093 59.169 31.492 74.082 6.457 11.961-43.404-38.743-60.307-30.13-105.52 1.2671-6.6683 6.5031-9.5649 7.5295-18.306 9.9925-10.131 22.23-24.403 27.626-38.766 0.74524-1.9866-0.81648-5.7468 0-8.612 1.0418-3.6694 4.6005-5.6048 5.0203-8.612 0.50645-3.6248-2.2319-7.1224-2.5092-11.847-0.45448-7.7038 3.5317-16.918 2.5092-23.688-1.5059-9.9959-10.611-17.508-11.3-27.998-0.54112-8.2718 3.8822-17.155 3.7628-26.918-0.12517-11.068-6.6052-22.688-1.2498-33.38 9.6825-0.86532 20.316 3.5158 30.135 7.537 8.7504 3.5835 21.306 9.839 23.854 16.152 0.044296 0.1156 0.065475 0.25762 0.1059 0.38312l-1.3538-35.916c-12.756-11.667-26.07-22.862-30.145-41.985zm-262.42-18.304c23.21 1.9817 68.925-5.2729 72.826 19.381-29.7 2.4672-53.922-9.015-72.826-19.381zm217.22 115.21c-14.183-4.4257-6.8074-32.636-12.558-43.072 5.1494-0.10734 10.295-0.20973 13.815 1.0784-1.1285 15.774 2.7769 29.349-1.2575 41.993zm12.559-74.298c-3.5992 0.21303-6.8594 0.13377-6.2797-3.2285 2.1857 0.99579 6.7361-0.036331 6.2797 3.2285zm15.065-4.3068c0.37164-3.6281 5.5653-3.1228 6.2816-6.4603 4.5254 2.5795 9.5804 4.7032 10.042 10.767-10.249 2.023-7.1886-8.323-16.324-4.3068z"/>
 <path d="m221.87-13.899l0.1618 4.2705c0.13287-1.6729 0.1637-3.1542-0.16177-4.2705z"/>
</svg>
